<?xml version="1.0" encoding="UTF-8" standalone="no"?>
<!-- Created with Inkscape (http://www.inkscape.org/) -->

<svg
   version="1.1"
   id="svg2"
   width="2816"
   height="1536"
   viewBox="0 0 2816 1536"
   sodipodi:docname="Gemini_Generated_Image_uh80g1uh80g1uh80.svg"
   inkscape:version="1.2.2 (732a01da63, 2022-12-09)"
   xmlns:inkscape="http://www.inkscape.org/namespaces/inkscape"
   xmlns:sodipodi="http://sodipodi.sourceforge.net/DTD/sodipodi-0.dtd"
   xmlns="http://www.w3.org/2000/svg"
   xmlns:svg="http://www.w3.org/2000/svg">
  <defs
     id="defs6" />
  <sodipodi:namedview
     id="namedview4"
     pagecolor="#505050"
     bordercolor="#ffffff"
     borderopacity="1"
     inkscape:showpageshadow="0"
     inkscape:pageopacity="0"
     inkscape:pagecheckerboard="1"
     inkscape:deskcolor="#505050"
     showgrid="false"
     inkscape:zoom="0.41477273"
     inkscape:cx="1401.9726"
     inkscape:cy="764.27397"
     inkscape:window-width="1920"
     inkscape:window-height="1009"
     inkscape:window-x="1912"
     inkscape:window-y="-8"
     inkscape:window-maximized="1"
     inkscape:current-layer="g8" />
  <g
     inkscape:groupmode="layer"
     inkscape:label="Image"
     id="g8">
    <g
       id="g293">
      <path
         style="display:inline;fill:#4d3434;fill-opacity:1"
         d="m 664.12375,1040.4224 c -17.41927,-4.6851 -32.56229,-18.9072 -39.38541,-36.9902 -2.2349,-5.92307 -2.23877,-6.04711 -2.5187,-80.62036 l -0.28035,-74.68816 6.78035,-3.96243 c 3.7292,-2.17933 8.87441,-5.80716 11.43381,-8.06183 4.74698,-4.18181 6.66368,-4.88229 8.45573,-3.09024 0.65957,0.65957 18.82996,0.9194 52.45,0.75 L 752.5,833.5 753,780.08309 c 0.337,-36.00348 0.84241,-53.53097 1.55038,-53.7668 0.57771,-0.19243 2.94021,1.26774 5.25,3.24484 L 764,733.15585 v 50.43177 50.43177 l 47.75,-0.25969 47.75,-0.2597 0.27822,-13.75 c 0.18833,-9.30749 0.63969,-13.75 1.39701,-13.75 0.61533,0 3.06208,1.59238 5.43722,3.53863 l 4.31844,3.53864 0.28455,10.21136 L 871.5,833.5 l 17,0.5 17,0.5 8.31819,4.29544 c 4.75327,2.45456 8.1465,4.81168 7.91759,5.5 -0.29207,0.87823 -7.15105,1.34002 -25.31819,1.70456 L 871.5,846.5 v 38.5 38.5 h 47 47 l 0.5,-32.5 0.5,-32.5 3.2728,0.14993 c 1.80004,0.0825 4.38754,0.88033 5.75,1.77305 L 978,862.04611 V 893.02305 924 h 45 45 v -39 -39 h -35.85 -35.84992 l -3.90004,-2.83328 c -5.10165,-3.70621 -6.75477,-5.79993 -6.0433,-7.65399 C 986.8617,834.19684 992.21282,834 1027.4804,834 h 40.5431 l -0.2618,-38.75 -0.2617,-38.75 -44.75,-0.2603 -44.75,-0.26029 -0.0939,9.26029 c -0.0517,5.09317 -0.0796,20.34999 -0.0621,33.90405 0.0384,29.70625 -0.16114,30.3704 -7.18154,23.89922 L 966.02818,818.77125 965.7641,787.63562 965.5,756.5 930.90218,756 c -37.01733,-0.53497 -34.8993,-0.23197 -41.15218,-5.88708 -5.63739,-5.09846 -5.83744,-5.06913 36.5,-5.35131 L 965.5,744.5 v -41 -41 l -46.75,-0.25989 c -36.98821,-0.20562 -46.7892,0.003 -46.93771,1 -0.10324,0.69294 -0.23741,10.03489 -0.29815,20.75989 -0.23574,41.62585 -0.44223,47 -1.80593,47 -0.71049,0 -3.17863,-1.92255 -5.48477,-4.27233 l -4.19298,-4.27233 -0.26523,-29.97767 L 859.5,662.5 838,662 c -17.13603,-0.39851 -21.44409,-0.76921 -21.22456,-1.82633 0.1515,-0.72948 3.0765,-3.87746 6.5,-6.99551 3.42351,-3.11805 10.49956,-9.72808 15.72456,-14.68895 5.225,-4.96087 18.47863,-17.33789 29.45251,-27.50449 10.97389,-10.16659 26.6077,-24.67222 34.7418,-32.23472 L 917.9836,565 h 21.3082 c 15.23971,0 21.64996,0.34176 22.5082,1.2 0.8114,0.8114 1.2,5.4493 1.2,14.32186 0,15.43662 1.26417,20.22456 7.08637,26.83892 5.67562,6.44784 10.81503,8.63922 20.26147,8.63922 8.92986,0 12.82696,-1.35625 18.42216,-6.41119 6.7775,-6.12307 8.5488,-11.72703 9.0364,-28.58881 0.269,-9.30183 0.827,-14.76338 1.5565,-15.23469 2.0101,-1.29871 25.8642,-0.78841 32.9069,0.70397 19.1225,4.05215 35.7608,20.51729 40.1989,39.7807 1.2233,5.30964 1.4644,34.98787 1.6022,197.25002 0.1212,142.80723 -0.133,192.25365 -1.0076,195.96852 -3.5909,15.25268 -14.8372,29.31588 -29.303,36.64278 -12.2355,6.1972 -0.4031,5.864 -206.2603,5.8081 -160.73135,-0.044 -188.7798,-0.2608 -193.37625,-1.497 z M 752.5,976 v -39.5 l -52.32162,-0.25896 -52.32163,-0.25895 0.35005,27.25895 c 0.32568,25.36099 0.50451,27.64535 2.56843,32.80839 3.62419,9.06617 12.39111,16.59917 21.95924,18.86847 2.07104,0.4912 20.86553,0.8231 41.76553,0.7376 l 38,-0.1555 z m -57.80402,11.68694 c -11.07012,-6.70143 -11.21029,-21.78499 -0.26207,-28.20107 7.60426,-4.4564 15.22975,-3.04978 21.36832,3.94167 5.16013,5.87706 5.25265,14.41909 0.22539,20.81021 -4.64069,5.89968 -14.61855,7.51304 -21.33164,3.44919 z m 164.51545,25.32586 c 0.24114,-1.643 0.38034,-19.53047 0.30935,-39.75001 L 859.3917,936.5 811.69585,936.2403 764,935.98061 v 39.34303 c 0,21.63866 0.3,39.64306 0.66667,40.00966 0.36666,0.3667 21.69059,0.6667 47.3865,0.6667 H 858.773 Z M 804.98983,987.75 c -11.11537,-7.56505 -11.06765,-20.92415 0.10212,-28.5885 4.50289,-3.08974 12.91447,-2.71724 17.83997,0.79003 3.85641,2.746 7.02183,9.07195 7.02967,14.04847 0.0186,11.7977 -15.38129,20.27721 -24.97176,13.75 z m 160.77165,-12.0098 0.26149,-39.7598 -47.26149,0.2598 L 871.5,936.5 l -0.26212,38.49723 c -0.14416,21.17348 -0.0441,39.06547 0.22242,39.75987 0.38265,0.9972 10.32065,1.2081 47.26212,1.0028 L 965.5,1015.5 Z m 83.36092,37.6225 c 6.3383,-2.9307 12.5116,-8.7479 15.7053,-14.79924 L 1067.5,993.5 l 0.3063,-28.75 0.3063,-28.75 H 1023.0563 978 v 40.07181 40.07179 l 33.25,-0.3218 c 31.4843,-0.3047 33.4955,-0.4353 37.8724,-2.4591 z M 752.5,885 v -38.5 h -52 -52 l -0.26242,37.49645 c -0.14433,20.62304 -0.0444,38.0646 0.22208,38.75901 0.38331,0.99891 11.29706,1.20848 52.26241,1.00355 L 752.5,923.5 Z m -58.16316,13.48564 C 689.83827,895.78916 686,889.42024 686,884.65216 c 0,-10.15572 11.45476,-18.63013 21.22529,-15.70281 5.59289,1.67567 11.40128,7.54315 12.32115,12.44652 2.65826,14.16972 -12.70544,24.58488 -25.2096,17.08977 z M 859.5,885.65978 c 0,-20.81212 -0.25434,-38.25412 -0.5652,-38.76001 -0.33468,-0.54464 -19.70822,-0.81374 -47.5,-0.65978 L 764.5,846.5 l -0.26242,37.49645 c -0.14433,20.62304 -0.0443,38.06496 0.22238,38.75981 0.38308,0.99827 10.4049,1.20884 47.76242,1.00355 L 859.5,923.5 Z m -54.16985,13.60513 c -5.26602,-2.93202 -7.67516,-6.88652 -8.14399,-13.36801 -0.51045,-7.05694 1.73003,-11.35745 7.65059,-14.68499 10.27855,-5.77687 23.02145,-0.009 24.69933,11.18015 0.84621,5.64291 -1.98841,12.36972 -6.59463,15.64963 -4.39006,3.126 -13.10648,3.73141 -17.6113,1.22322 z M 1067.5,703.5 v -41 l -44.4345,-0.26053 c -26.10159,-0.15305 -44.66777,0.11697 -44.99997,0.65444 -0.42192,0.68264 -0.55173,77.04781 -0.13831,81.36639 0.04,0.41816 20.21028,0.64316 44.82278,0.5 L 1067.5,744.5 Z m -52.9796,16.21317 c -10.1597,-5.75411 -11.2166,-18.5047 -2.1907,-26.42947 9.2007,-8.07832 23.3667,-3.5524 26.6127,8.50255 3.6827,13.67651 -11.8262,25.06079 -24.422,17.92692 z m 454.1701,210.64402 C 1468.3107,929.9774 1468,884.56481 1468,829.44032 c 0,-90.47082 0.154,-100.28542 1.5818,-100.83333 2.0601,-0.79053 27.7763,-0.79053 29.8364,0 1.2255,0.47025 1.5818,2.12228 1.5818,7.33333 0,3.69949 0.2692,6.99553 0.5982,7.32454 0.329,0.32901 3.0541,-1.4022 6.0559,-3.84714 11.8312,-9.63666 23.8131,-13.64993 40.8459,-13.68103 13.7424,-0.0251 22.1254,1.9427 33.664,7.90215 16.71,8.63042 29.0893,23.25812 35.0035,41.36116 2.6752,8.18868 3.1715,11.39539 3.5956,23.23132 0.6031,16.82874 -1.6373,28.28623 -8.031,41.07072 -7.2911,14.57903 -24.0473,28.89829 -39.394,33.6647 -23.574,7.32166 -49.8868,3.50139 -66.0064,-9.58324 -2.2926,-1.86092 -4.4243,-3.3835 -4.7372,-3.3835 -0.3129,0 -0.6872,15.8625 -0.8317,35.25 l -0.2628,35.25 -16.0595,0.27386 c -8.8327,0.15062 -16.3702,-0.0369 -16.75,-0.41667 z m 92.5562,-88.32343 c 27.5467,-10.42571 33.6701,-53.7108 10.5529,-74.59581 -11.4945,-10.38458 -30.5075,-13.06695 -45.5504,-6.42625 -5.6152,2.47887 -14.5648,11.04869 -18.2321,17.45845 -14.7612,25.79981 -0.7409,59.62448 27.1592,65.52309 6.867,1.45182 19.5822,0.49613 26.0704,-1.95948 z M 916.1228,900.91483 C 908.61137,899.3262 903,892.41678 903,884.75641 c 0,-6.01841 2.10153,-9.86244 7.39635,-13.52912 7.8519,-5.43746 19.93687,-2.36688 23.94736,6.0846 5.88026,12.39172 -4.9425,26.41127 -18.22091,23.60294 z m 97.867,-2.16483 c -4.9427,-3.36399 -7.2155,-7.04319 -7.7431,-12.53476 -0.8892,-9.25399 5.1662,-16.53077 14.7865,-17.76898 3.49,-0.44919 5.4491,-0.0688 8.9587,1.73941 11.7821,6.07034 12.3485,20.951 1.0864,28.54053 -4.6394,3.12651 -12.5135,3.13747 -17.0885,0.0238 z m 219.4822,-22.7291 c -20.9983,-2.9647 -36.1564,-10.99038 -48.725,-25.79812 -24.8848,-29.31804 -23.0915,-76.02145 3.931,-102.37618 15.7021,-15.31406 32.9734,-22.09803 56.322,-22.12264 21.4949,-0.0227 38.3386,6.34712 52.2413,19.7561 5.4789,5.28439 11.7587,14.20943 11.7587,16.71193 0,1.06938 -2.5501,3.19447 -6.75,5.62494 -10.8638,6.28693 -15.6355,9.13427 -17.459,10.418 -1.4729,1.03689 -2.7165,0.14884 -9,-6.42691 -4.0101,-4.19653 -9.2042,-8.57957 -11.5424,-9.7401 -22.3422,-11.08869 -47.1747,-3.15989 -57.8681,18.47675 -3.1115,6.29555 -3.6968,8.59833 -4.1338,16.26342 -1.6573,29.06685 17.5413,49.45108 45.2073,47.99899 13.1409,-0.68972 23.8765,-6.94744 31.8244,-18.55025 1.2219,-1.78374 2.829,-3.24624 3.5715,-3.25 0.7424,-0.004 6.9098,3.25567 13.7052,7.24317 8.6752,5.09051 12.3687,7.80567 12.4002,9.11552 0.025,1.02603 -2.0459,5.01027 -4.6011,8.85386 -5.1989,7.82023 -16.5607,17.58626 -24.9439,21.44044 -11.8524,5.44918 -32.3217,8.28357 -45.9383,6.36108 z m 482.6892,-0.0484 c -11.859,-1.629 -23.3399,-6.41991 -31.3406,-13.07822 -2.5737,-2.14185 -5.1415,-3.89427 -5.7062,-3.89427 -0.5809,0 -1.1544,3.14802 -1.3206,7.25 l -0.2938,7.25 -15.3654,0.27667 c -10.4805,0.18871 -15.8056,-0.0886 -16.75,-0.87245 -1.1629,-0.96516 -1.3821,-17.33796 -1.3693,-102.27666 0.01,-55.62016 0.3796,-101.70158 0.8249,-102.40317 0.6146,-0.9685 4.7639,-1.20926 17.2346,-1 l 16.4252,0.2756 0.2517,36.5 c 0.1384,20.075 0.4681,37.07909 0.7327,37.78688 0.3268,0.87409 2.1517,-0.0336 5.6892,-2.82985 C 1696.5873,729.93501 1708.9861,726 1726,726 c 20.7796,0 36.4963,6.45387 51.1025,20.98468 9.364,9.3157 13.573,16.54082 18.0683,31.01532 2.0294,6.53462 2.3292,9.55948 2.3292,23.5 0,13.98845 -0.2944,16.9375 -2.3416,23.45693 -3.0156,9.6032 -7.9193,19.29591 -13.0385,25.77217 -4.9742,6.29287 -15.8637,15.2202 -22.8389,18.72366 -10.9129,5.48121 -29.843,8.34347 -43.1198,6.51973 z m 21.0145,-33.61495 c 7.4389,-2.97166 13.3025,-7.69882 17.8429,-14.38492 5.8472,-8.61046 8.0657,-15.46555 8.0866,-24.98827 0.023,-10.26722 -0.7512,-14.23134 -4.2211,-21.62493 -8.0088,-17.06507 -25.5186,-26.47385 -43.9568,-23.61988 -23.4119,3.62382 -38.706,24.73705 -35.2578,48.67253 2.6257,18.22567 14.483,32.35368 31.223,37.2024 6.2686,1.81569 20.2675,1.14622 26.2832,-1.25693 z M 1881,875.95239 c -19.3557,-1.82141 -36.5497,-10.08028 -48.7034,-23.39382 -7.4587,-8.17052 -11.7606,-15.39369 -15.6619,-26.29736 -3.0548,-8.5378 -3.1338,-9.19471 -3.0975,-25.76121 0.036,-16.65208 0.1024,-17.17139 3.2255,-25.37427 7.2211,-18.96661 19.8457,-32.92874 38.0036,-42.0301 20.1565,-10.10312 49.237,-9.97284 70.6119,0.31634 13.9085,6.69516 27.1458,19.42079 33.3782,32.08803 17.178,34.91421 6.6003,77.73339 -24.3097,98.40729 -14.5079,9.70346 -33.3074,13.94025 -53.4467,12.0451 z m 23.7192,-33.73487 c 11.5529,-4.43142 21.3854,-15.09402 24.9859,-27.09524 2.5091,-8.36307 2.2037,-22.97915 -0.6344,-30.36149 -7.745,-20.14645 -27.1787,-30.95083 -48.2236,-26.81049 -15.2772,3.00559 -25.0664,11.59412 -30.9929,27.1913 -2.7104,7.13332 -2.7233,22.01502 -0.026,30.60654 6.0444,19.25553 21.3399,29.84851 41.6722,28.86021 4.7141,-0.22915 10.1437,-1.21114 13.2192,-2.39083 z M 2050.5,876.36943 c -9.4796,-0.95418 -19.6377,-3.83052 -28.3984,-8.04121 -7.87,-3.7826 -10.8137,-5.92483 -18.1008,-13.17272 -9.6349,-9.58304 -14.7062,-17.65919 -18.831,-29.98885 -2.2995,-6.8734 -2.5703,-9.2704 -2.6173,-23.16665 -0.046,-13.54467 0.2429,-16.44613 2.2894,-23 8.2343,-26.37108 27.716,-44.89501 53.7087,-51.06826 10.6433,-2.52778 28.9997,-2.77546 38.7147,-0.52239 22.2151,5.15202 40.6417,19.39872 50.1614,38.78284 6.5797,13.39759 8.019,19.77429 7.9692,35.30781 -0.047,14.58485 -1.4651,21.43103 -6.8638,33.12885 -9.311,20.17502 -27.5236,34.9137 -49.0321,39.67948 -7.4874,1.65905 -22.4379,2.72161 -29,2.0611 z m 19,-32.73078 c 17.1272,-4.58191 27.9539,-17.35598 30.5514,-36.04648 2.0179,-14.51996 -2.3458,-28.64077 -11.8618,-38.38484 -15.7207,-16.09758 -44.1317,-16.09546 -59.4255,0.004 -16.1365,16.98707 -16.5323,45.13723 -0.8846,62.914 9.1535,10.39896 27.1629,15.38062 41.6205,11.51288 z m -738.0295,29.13623 C 1331.2032,872.07369 1331.1006,825.6 1331.2423,769.5 l 0.2577,-102 h 16.5 16.5 v 103 103 l -16.2718,0.27488 c -12.4692,0.21064 -16.3854,-0.0231 -16.7577,-1 z m 69.22,0.58231 C 1400.3107,872.9774 1400,840.38981 1400,800.94032 c 0,-64.48255 0.1597,-71.78764 1.5818,-72.33333 2.3469,-0.90058 29.7137,-0.70617 31.1749,0.22146 0.9937,0.63093 1.2029,15.84688 1,72.73469 L 1433.5,873.5 l -16.0595,0.27386 c -8.8327,0.15062 -16.3702,-0.0369 -16.75,-0.41667 z m 758.4272,-0.71539 c -0.8237,-0.99252 -1.0586,-28.79091 -0.8725,-103.25 L 2158.5,667.5 h 17 17 l 0.2581,58.4237 0.2582,58.42369 28.4003,-28.19469 28.4004,-28.19469 20.2589,0.27099 c 15.7127,0.21019 20.3575,0.56745 20.6985,1.59206 0.2479,0.74478 -12.1485,13.95711 -28.4174,30.28792 -15.8713,15.93177 -28.857,29.59472 -28.857,30.36212 0,0.7674 9,12.99123 20,27.16408 11,14.17284 24.8375,32.00164 30.75,39.61954 5.9125,7.6179 10.75,14.50201 10.75,15.29801 0,1.21433 -3.1889,1.44727 -19.8129,1.44727 h -19.8129 l -2.533,-2.75 c -3.185,-3.45791 -20.1434,-25.42873 -33.6205,-43.55784 -5.6536,-7.60514 -10.8543,-13.68456 -11.557,-13.50984 -0.7027,0.17472 -4.2895,3.5224 -7.9707,7.43928 l -6.693,7.1216 v 21.04661 c 0,11.57564 -0.2731,21.75842 -0.607,22.6284 -0.518,1.34986 -2.9193,1.58179 -16.3775,1.58179 -12.0666,0 -16.0354,-0.319 -16.8978,-1.3582 z M 948,837.07446 c -37.60866,-13.43819 -42.8164,-16.62218 -117,-71.53314 -26.675,-19.74493 -54.0125,-39.90548 -60.75,-44.80124 -7.22233,-5.24805 -12.24976,-9.58651 -12.24941,-10.57072 6.8e-4,-1.90631 30.2561,-29.52076 32.81787,-29.95323 1.03127,-0.1741 10.59005,7.94681 24.71823,21 12.67019,11.70613 32.92019,30.2768 45,41.26816 12.07982,10.99136 25.56331,23.40078 29.96331,27.57647 4.4,4.1757 18.575,17.27289 31.5,29.10486 41.45688,37.95101 43.49465,39.87455 43.82332,41.36661 0.53919,2.44768 -3.47623,1.66868 -17.82332,-3.45777 z m -371.65331,2.83078 c -28.50538,-4.76236 -49.14634,-31.17521 -46.91142,-60.02939 1.24238,-16.03983 7.81844,-29.20311 20.59259,-41.22012 19.33626,-18.19016 43.93376,-23.22989 68.97214,-14.13156 7.02175,2.55153 18.36663,2.98958 26,1.00392 13.38951,-3.48301 34.43658,-15.28667 46,-25.79782 7.74252,-7.03796 13.20293,-14.54703 19.62647,-26.99001 6.2745,-12.15427 6.41432,-12.28806 35.37353,-33.84734 8.525,-6.34662 31.475,-23.46197 51,-38.03412 74.26779,-55.4285 82.75786,-61.70932 92,-68.06004 19.66929,-13.51574 39.06959,-22.84382 61.04952,-29.35393 C 961.23205,500.13274 964,499.8419 964,501.979 c 0,0.47353 -10.2375,10.31972 -22.75,21.88043 -23.56901,21.77617 -31.72114,29.35636 -66.19314,61.54911 -11.24373,10.5003 -26.99373,25.20143 -35,32.66917 -8.00627,7.46773 -26.18341,24.56773 -40.39364,38 -33.34461,31.51909 -39.68363,37.1437 -48.16322,42.73527 -3.85,2.53875 -21.625,12.10769 -39.5,21.26431 -52.46563,26.87596 -52.64505,26.9882 -56.62258,35.42271 -2.09504,4.44263 -2.36029,6.44917 -2.37952,18 -0.0247,14.85322 -1.19436,20.42252 -6.61548,31.5 -5.32261,10.87618 -17.77125,23.04651 -29.38242,28.72554 -13.13615,6.42488 -26.77565,8.49822 -40.65331,6.1797 z m 28.95492,-27.65822 c 9.15106,-4.29223 17.55465,-12.69779 20.74955,-20.75439 1.88455,-4.75229 2.37517,-7.85543 2.37043,-14.99263 -0.005,-7.82626 -0.35911,-9.68033 -2.71369,-14.21657 -5.92918,-11.42292 -16.9116,-18.28126 -29.2764,-18.28264 -12.65835,-0.001 -22.30221,4.17553 -31.63199,13.70042 -6.8124,6.95486 -10.16938,14.83711 -10.62758,24.95378 -0.32651,7.20895 -0.0494,8.86791 2.38857,14.30048 3.32203,7.40247 10.24397,14.0345 17.7415,16.99844 4.21421,1.66597 6.99599,2.0008 14.698,1.76912 8.25051,-0.24819 10.39459,-0.70537 16.30161,-3.47601 z m 92.06659,-1.33517 c -1.72249,-0.49928 -4.72716,-2.67365 -6.67705,-4.83195 -9.307,-10.30174 -3.09442,-25.71849 10.82924,-26.87315 10.28261,-0.85271 17.90818,6.04612 17.90818,16.2015 0,11.66463 -10.30922,18.90975 -22.06037,15.5036 z m 320.5454,0.13243 c -7.8116,-2.36732 -12.4386,-9.2284 -11.6635,-17.29511 1.285,-13.37327 16.5315,-19.69395 26.7548,-11.09162 4.2503,3.57646 5.9951,7.40199 5.9951,13.14491 0,6.27963 -2.9878,10.92546 -8.97,13.94754 -4.5968,2.32227 -7.6486,2.64826 -12.1164,1.29428 z M 912.50223,720.48206 c -7.23102,-3.90897 -9.91039,-8.54669 -9.28621,-16.07349 1.37689,-16.60348 24.04724,-21.01761 31.14325,-6.06389 3.54558,7.47175 1.31379,15.88039 -5.5678,20.97766 -3.65744,2.70911 -12.28663,3.32347 -16.28924,1.15972 z M 628.8024,712.08774 c -7.24416,-1.48086 -6.85429,1.07141 -6.56376,-42.96961 L 622.5,629.5 634,629.5454 c 9.03016,0.0357 12.97471,0.51963 18.36648,2.25344 8.72597,2.80597 16.61929,7.02189 23.73807,12.67879 6.05633,4.81262 13.53065,14.68556 12.44615,16.44031 -0.44113,0.71377 -7.04718,1.08204 -19.40972,1.08204 -13.24298,0 -19.09302,0.35204 -19.94098,1.2 -0.86175,0.86175 -1.2,7.50023 -1.2,23.55103 v 22.35102 l -3.25,1.35381 c -4.39049,1.82889 -11.45006,2.55128 -15.9476,1.63188 z m 781.6178,-4.49889 c -16.6868,-5.22447 -21.0189,-27.62305 -7.269,-37.5834 13.8996,-10.06885 32.7945,-2.70459 35.4354,13.81094 1.0396,6.50102 -1.2089,12.80351 -6.5211,18.27846 -6.382,6.5776 -12.9002,8.23203 -21.6453,5.494 z M 699.6639,649.61341 c -10.01346,-14.74143 -19.3167,-22.43482 -34.69916,-28.69476 -10.84155,-4.412 -17.8572,-5.91789 -27.60908,-5.9262 -22.95475,-0.0196 -39.85528,-6.56104 -54.31858,-21.02434 C 568.41862,579.34966 561.89419,557.49205 566.48,538.5 c 2.31886,-9.60352 2.12872,-10.31909 -5.46609,-20.57036 -12.58495,-16.98684 -19.29583,-32.90342 -19.44066,-46.10856 -0.0661,-6.02511 0.20499,-6.96988 2.76906,-9.65107 3.26657,-3.41579 5.82247,-4.14314 10.39518,-2.95823 3.85378,0.99862 5.38642,3.61498 7.78411,13.28822 2.99972,12.10201 9.42674,22.26413 17.4784,27.63604 5.54051,3.69651 8.13384,3.50271 20.05377,-1.49863 16.71729,-7.0142 31.16138,-6.73287 48.54523,0.94555 30.95174,13.67132 46.75398,48.06563 36.06275,78.49222 -4.63658,13.19542 -3.27809,20.57162 5.15601,27.99561 3.81304,3.35637 32.34614,21.79847 39.93224,25.80983 3.66238,1.93658 2.67024,4.42855 -3.5,8.79098 -3.1625,2.23593 -8.96699,7.04951 -12.89887,10.69686 -3.93187,3.64735 -7.33822,6.63154 -7.56966,6.63154 -0.23143,0 -2.98434,-3.77396 -6.11757,-8.38659 z m -56.67994,-61.76537 c 4.74485,-1.60236 7.69895,-3.45397 11.56682,-7.25 17.85619,-17.52456 9.14856,-48.4883 -16.67876,-59.30851 -5.24371,-2.19682 -7.96567,-2.68015 -15.37202,-2.72953 -7.72423,-0.0515 -9.80166,0.31584 -14.65538,2.59136 -6.67472,3.12924 -12.81741,9.12739 -16.0331,15.65583 -3.25338,6.60497 -3.25817,20.4414 -0.01,27.60309 9.18803,20.25529 31.01217,30.24921 51.18198,23.43776 z M 732.5,616.68822 C 715.14009,606.48416 696,593.06838 696,591.10445 c 0,-1.02311 0.71731,-3.57696 1.59402,-5.67523 0.87671,-2.09827 2.25322,-6.97655 3.0589,-10.84063 0.80569,-3.86408 1.94656,-7.606 2.53529,-8.31537 0.85538,-1.03067 12.34379,-1.23788 57.1911,-1.03149 48.52861,0.22333 56.12069,0.45664 56.12069,1.72462 0,0.80649 -9.225,8.41892 -20.5,16.9165 -11.275,8.49758 -27.21598,20.55022 -35.42439,26.78365 -8.20841,6.23342 -15.85841,11.32863 -17,11.32269 -1.14159,-0.006 -6.12561,-2.39138 -11.07561,-5.30097 z M 984,606.27847 c -3.50182,-1.31584 -7.17785,-4.70676 -9.02264,-8.32285 C 973.16014,594.39358 973,592.00864 973,568.50772 c 0,-19.48921 0.32751,-26.33739 1.37684,-28.78984 3.33889,-7.80348 12.69246,-12.21212 20.77319,-9.79107 5.22107,1.56427 10.38927,6.75338 11.80577,11.8534 0.5784,2.08269 1.0258,14.06227 1.0167,27.21979 -0.014,20.71397 -0.2353,23.97422 -1.8625,27.5 -2.1358,4.62763 -5.4219,7.91663 -9.4251,9.43339 -2.9459,1.11617 -10.11386,1.31117 -12.6849,0.34508 z"
         id="path305" />
    </g>
  </g>
</svg>
